# xmcd CD database file
#
# Track frame offsets:
#	150
#	14685
#	29003
#	46754
#	63629
#	75928
#	89473
#	109306
#	125162
#	140016
#	158491
#	175664
#	186676
#	203859
#	218950
#
# Disc length: 3094 seconds
#
# Revision: 0
# Processed by: cddbd v1.5.1PL0 Copyright (c) Steve Scherf et al.
# Submitted via: CDex 1.51
#
DISCID=dd0c140f
DTITLE=Fapy Lafertin and Le Jazz - Hungaria
DYEAR=1996
DGENRE=Jazz
TTITLE0=Melancholy Baby
TTITLE1=Twelfth Year
TTITLE2=Songe D'Automne
TTITLE3=Time On My Hands
TTITLE4=Billets Doux
TTITLE5=Russian Lullaby
TTITLE6=Stardust
TTITLE7=Hungaria
TTITLE8=Leibestraum
TTITLE9=Swing 42
TTITLE10=Stockholm
TTITLE11=Notes Noires
TTITLE12=What A Difference A Day Made
TTITLE13=Vipers Dream
TTITLE14=Black And White
EXTD=YEAR: 1996
EXTT0=
EXTT1=
EXTT2=
EXTT3=
EXTT4=
EXTT5=
EXTT6=
EXTT7=
EXTT8=
EXTT9=
EXTT10=
EXTT11=
EXTT12=
EXTT13=
EXTT14=
PLAYORDER=
